<?xml version="1.0" encoding="utf-8"?>
<!-- Generator: Adobe Illustrator 16.0.0, SVG Export Plug-In . SVG Version: 6.00 Build 0)  -->
<!DOCTYPE svg PUBLIC "-//W3C//DTD SVG 1.1//EN" "http://www.w3.org/Graphics/SVG/1.1/DTD/svg11.dtd">
<svg version="1.1" id="Layer_1" xmlns="http://www.w3.org/2000/svg" xmlns:xlink="http://www.w3.org/1999/xlink" x="0px" y="0px"
	 width="953.736px" height="164.5px" viewBox="0 0 953.736 164.5" enable-background="new 0 0 953.736 164.5" xml:space="preserve">
<g>
	<g>
		<path fill="#FFFFFF" d="M794.768,109.412c4.193,9.298,9.987,17.371,17.419,24.215c7.423,6.847,16.184,12.28,26.269,16.322
			c10.098,3.939,20.947,5.879,32.554,5.879c11.715,0,22.565-1.939,32.659-5.879c10.088-4.042,18.84-9.476,26.27-16.322
			c0.191-0.18,0.384-0.345,0.567-0.605c7.139-6.676,12.753-14.57,16.94-23.609c4.193-9.298,6.29-19.216,6.29-29.74
			c0-10.545-2.097-20.444-6.29-29.662c-4.188-9.031-9.802-17.018-16.94-23.685c-0.184-0.263-0.376-0.44-0.567-0.617
			c-7.43-6.844-16.182-12.283-26.27-16.226c-10.094-4.045-20.944-5.974-32.659-5.974c-11.606,0-22.456,1.929-32.554,5.974
			c-10.085,3.943-18.846,9.382-26.269,16.226c-7.432,6.842-13.226,15.006-17.419,24.302c-4.293,9.217-6.377,19.117-6.377,29.662
			C788.391,90.196,790.475,100.114,794.768,109.412z M814.661,54.225c3.715-7.28,8.568-13.429,14.563-18.422
			c5.906-5.003,12.574-8.686,19.895-11.234c7.336-2.458,14.664-3.688,21.892-3.688c7.337,0,14.664,1.231,21.988,3.688
			c7.329,2.548,13.997,6.231,19.989,11.234c5.91,4.993,10.758,11.143,14.479,18.422c1.233,2.449,2.274,5.003,3.039,7.721
			c1.722,5.355,2.467,11.319,2.467,17.727c0,6.494-0.745,12.38-2.467,17.72c-0.765,2.722-1.806,5.266-3.039,7.725
			c-3.722,7.276-8.569,13.421-14.479,18.428c-5.992,4.992-12.66,8.682-19.989,11.221c-7.324,2.463-14.651,3.683-21.988,3.683
			c-7.228,0-14.556-1.22-21.892-3.683c-7.32-2.539-13.988-6.229-19.895-11.221c-5.994-5.007-10.848-11.151-14.563-18.428
			c-3.713-7.289-5.529-15.708-5.529-25.445C809.131,70.019,810.948,61.509,814.661,54.225z"/>
		<polygon fill="#FFFFFF" points="753.43,138.893 734.901,138.893 734.901,20.463 753.874,20.463 753.874,6.727 695.208,6.727 
			695.208,20.463 714.181,20.463 714.181,138.893 694.762,138.893 694.762,152.637 753.43,152.637 		"/>
		<polygon fill="#FFFFFF" points="560.093,6.727 501.44,6.727 501.44,20.463 518.889,20.463 558.805,79.878 558.805,80.288 
			519.103,138.901 501.44,138.901 501.44,152.625 560.093,152.625 560.093,138.901 540.258,138.901 569.497,96.244 569.925,96.244 
			597.848,138.901 581.715,138.901 581.715,152.625 638.19,152.625 638.19,138.901 620.527,138.901 581.506,79.066 581.506,78.663 
			623.138,20.463 638.864,20.463 638.864,6.727 581.715,6.727 581.715,20.463 600.022,20.463 571.03,62.895 570.564,62.895 
			542.02,20.463 560.093,20.463 		"/>
		<polygon fill="#FFFFFF" points="373.081,138.901 353.243,138.901 382.464,96.244 382.887,96.244 410.82,138.901 394.681,138.901 
			394.681,152.625 451.158,152.625 451.158,138.901 433.501,138.901 394.465,79.066 394.465,78.663 436.105,20.463 451.84,20.463 
			451.84,6.727 394.681,6.727 394.681,20.463 413.003,20.463 384.004,62.895 383.554,62.895 354.995,20.463 373.081,20.463 
			373.081,6.727 314.408,6.727 314.408,20.463 331.855,20.463 371.794,79.878 371.794,80.288 332.063,138.901 314.408,138.901 
			314.408,152.625 373.081,152.625 		"/>
		<polygon fill="#FFFFFF" points="203.505,20.463 222.479,20.463 222.479,138.901 203.07,138.901 203.07,152.625 261.742,152.625 
			261.742,138.901 243.212,138.901 243.212,20.463 262.172,20.463 262.172,6.727 203.505,6.727 		"/>
		<path fill="#FFFFFF" d="M6.104,108.977c0.097,0.172,0.097,0.254,0.178,0.436c4.292,9.298,10.086,17.371,17.426,24.215
			c7.422,6.847,16.183,12.28,26.365,16.322c10.086,3.939,20.942,5.879,32.561,5.879c11.603,0,22.554-1.939,32.649-5.879
			c10.093-4.042,18.847-9.476,26.276-16.322c7.415-6.844,13.224-14.917,17.427-24.215c4.27-9.298,6.357-19.216,6.357-29.74
			c0-10.545-2.088-20.444-6.357-29.662c-4.203-9.296-10.012-17.46-17.427-24.302c-7.429-6.844-16.183-12.283-26.276-16.226
			c-10.095-4.045-21.046-5.974-32.649-5.974c-11.618,0-22.475,1.929-32.561,5.974c-10.182,3.943-18.943,9.382-26.365,16.226
			c-7.34,6.842-13.135,15.006-17.426,24.302c-0.082,0.177-0.082,0.265-0.178,0.443C2.004,59.573,0,69.312,0,79.672
			C0,90.026,2.004,99.756,6.104,108.977z M26.27,54.225c3.723-7.28,8.578-13.429,14.474-18.422
			c6.01-5.003,12.653-8.686,19.995-11.234c7.332-2.458,14.652-3.688,21.896-3.688c7.328,0,14.555,1.231,21.903,3.688
			c7.415,2.548,13.979,6.231,19.988,11.234c5.986,4.993,10.739,11.143,14.563,18.422c3.611,7.284,5.52,15.793,5.52,25.447
			c0,9.737-1.909,18.156-5.52,25.445c-3.824,7.276-8.577,13.421-14.563,18.428c-6.009,4.992-12.573,8.682-19.988,11.221
			c-7.348,2.463-14.575,3.683-21.903,3.683c-7.244,0-14.564-1.22-21.896-3.683c-7.342-2.539-13.985-6.229-19.995-11.221
			c-5.896-5.007-10.751-11.151-14.474-18.428c-3.714-7.289-5.61-15.708-5.61-25.445C20.66,70.019,22.556,61.509,26.27,54.225z"/>
	</g>
</g>
<path fill="#509CD5" d="M158.984,50.008c-4.203-9.298-10.012-17.463-17.428-24.297c-7.428-6.847-16.173-12.282-26.273-16.226
	c-10.088-4.048-21.042-5.979-32.648-5.979c-11.618,0-22.471,1.931-32.56,5.979c-10.188,3.944-18.946,9.379-26.361,16.226
	c-7.34,6.834-13.137,14.999-17.428,24.297c-0.088,0.185-0.088,0.266-0.176,0.451c-4.103,9.113-6.111,18.85-6.111,29.212
	c0,0.185,0,0.382,0.013,0.567h165.321c0.013-0.185,0.013-0.382,0.013-0.567C165.346,69.125,163.263,59.225,158.984,50.008z"/>
<path fill="#6CBFB1" d="M953.737,83.871c0-0.186,0-0.383-0.013-0.568H788.403c-0.014,0.186-0.014,0.383-0.014,0.568
	c0,10.361,2.008,20.099,6.111,29.212c0.087,0.185,0.087,0.267,0.176,0.451c4.291,9.298,10.088,17.464,17.428,24.298
	c7.414,6.846,16.174,12.281,26.361,16.226c10.088,4.048,20.941,5.979,32.561,5.979c11.605,0,22.559-1.932,32.647-5.979
	c10.101-3.944,18.845-9.38,26.273-16.226c7.415-6.834,13.225-15,17.429-24.298C951.655,104.316,953.737,94.417,953.737,83.871z"/>
<polygon fill="#6CBFB1" points="222.479,80.601 222.479,138.901 203.07,138.901 203.07,152.625 261.742,152.625 261.742,138.901 
	243.212,138.901 243.212,80.601 "/>
<polygon fill="#509CD5" points="714.393,78.611 714.393,20.311 694.983,20.311 694.983,6.586 753.655,6.586 753.655,20.311 
	735.125,20.311 735.125,78.611 "/>
<polygon fill="#509CD5" points="395.23,80.238 394.465,78.663 436.105,20.463 451.84,20.463 451.84,6.727 394.681,6.727 
	394.681,20.463 413.003,20.463 384.004,62.895 383.554,62.895 354.995,20.463 373.081,20.463 373.081,6.727 314.408,6.727 
	314.408,20.463 331.855,20.463 371.794,79.878 371.794,80.288 "/>
<polygon fill="#6CBFB1" points="558.805,80.288 558.805,80.288 519.103,138.901 501.44,138.901 501.44,152.625 560.093,152.625 
	560.093,138.901 540.258,138.901 569.497,96.244 569.925,96.244 597.848,138.901 581.715,138.901 581.715,152.625 638.19,152.625 
	638.19,138.901 620.527,138.901 582.27,80.238 582.27,80.238 "/>
</svg>
