<?xml version="1.0" encoding="utf-8"?>
<!-- Generator: Adobe Illustrator 16.0.3, SVG Export Plug-In . SVG Version: 6.00 Build 0)  -->
<!DOCTYPE svg PUBLIC "-//W3C//DTD SVG 1.1//EN" "http://www.w3.org/Graphics/SVG/1.1/DTD/svg11.dtd">
<svg version="1.1" xmlns="http://www.w3.org/2000/svg" xmlns:xlink="http://www.w3.org/1999/xlink" x="0px" y="0px"
	 width="376.497px" height="813px" viewBox="0 0 376.497 813" enable-background="new 0 0 376.497 813" xml:space="preserve">
<g id="Layer_1">
</g>
<g id="Layer_2">
</g>
<g id="Layer_3">
	<path fill="#1F2F68" d="M274.581,813L40.872,578.605c0,0-27.214-31.605-25.294-72.605h96.92v-15l-78-76.667V394l23.923,0.366
		l53.238-85.275l-16.324-26.501l-60.837-60.606V202l52-0.002V186L14.735,115.04c0,0-4.515-59.509,52.624-95.608
		c0,0,62.716-40.855,126.427,6.856l6.238,5.16L376.497,207.75V813H274.581z"/>
	<path fill="#4F9CD5" d="M227.913,71.058c-5.636-13.528-13.427-25.407-23.371-35.35c-9.959-9.96-21.687-17.869-35.231-23.606
		c-13.528-5.889-28.217-8.699-43.779-8.699c-15.58,0-30.135,2.81-43.662,8.699c-13.663,5.738-25.407,13.646-35.352,23.606
		c-9.841,9.943-17.615,21.822-23.369,35.35c-0.118,0.269-0.118,0.387-0.236,0.656c-5.502,13.258-8.193,27.404-8.193,42.48
		c0,0.27,0,0.805,0.017,0.805h221.692c0.017,0,0.017-0.535,0.017-0.805C236.444,98.85,233.651,84.468,227.913,71.058z"/>
	<path fill="#6BBEB0" d="M237.286,507.059c0-0.27,0-0.06-0.018-1.06H15.577c-0.018,1-0.018,0.79-0.018,1.06
		c0,15.076,2.692,29.36,8.195,42.618c0.116,0.27,0.116,0.446,0.234,0.716c5.755,13.527,13.528,25.436,23.37,35.379
		c9.944,9.961,21.689,17.884,35.35,23.621c13.529,5.89,28.083,8.706,43.663,8.706c15.563,0,30.251-2.806,43.78-8.695
		c13.544-5.737,25.271-13.644,35.231-23.604c9.944-9.943,17.734-21.938,23.372-35.466
		C234.493,536.922,237.286,522.404,237.286,507.059z"/>
	<polygon fill="#6BBEB0" points="112.271,97.21 112.271,182.03 86.243,182.03 86.243,201.997 164.921,201.997 164.921,182.03 
		140.073,182.03 140.073,97.21 	"/>
	<polygon fill="#4F9CD5" points="112.27,519.93 112.27,435.11 86.243,435.11 86.243,415.143 164.92,415.143 164.92,435.11 
		140.071,435.11 140.071,519.93 	"/>
	<polygon fill="#4F9CD5" points="142.657,308.948 141.632,306.655 197.47,221.983 218.568,221.983 218.568,201.997 141.921,201.997 
		141.921,221.983 166.49,221.983 127.603,283.714 126.999,283.714 88.703,221.983 112.955,221.983 112.955,201.997 34.276,201.997 
		34.276,221.983 57.674,221.983 111.229,308.422 111.229,309.019 	"/>
	<polygon fill="#6BBEB0" points="111.658,309.09 111.658,309.09 58.42,394.366 34.734,394.366 34.734,414.333 113.387,414.333 
		113.387,394.366 86.789,394.366 125.995,332.306 126.57,332.306 164.014,394.366 142.381,394.366 142.381,414.333 218.111,414.333 
		218.111,394.366 194.426,394.366 143.125,309.019 143.125,309.019 	"/>
	<text transform="matrix(1 0 0 1 256.0259 73.1768)" fill="#FFFFFF" font-family="'MyriadPro-Regular'" font-size="28">Nosotros</text>
	<text transform="matrix(1 0 0 1 196.0259 264.7446)" fill="#FFFFFF" font-family="'MyriadPro-Regular'" font-size="28">Saas</text>
	<text transform="matrix(1 0 0 1 196.0259 467.7446)" fill="#FFFFFF" font-family="'MyriadPro-Regular'" font-size="28">Impulsores</text>
	<text transform="matrix(1 0 0 1 185.9648 160.1768)" fill="#FFFFFF" font-family="'MyriadPro-Regular'" font-size="28">Desarrollo</text>
	<text transform="matrix(1 0 0 1 195.9648 359.1768)" fill="#FFFFFF" font-family="'MyriadPro-Regular'" font-size="28">Productos</text>
	<text transform="matrix(1 0 0 1 255.9648 564.4722)" fill="#FFFFFF" font-family="'MyriadPro-Regular'" font-size="28">Clientes</text>
</g>
</svg>
