<?xml version="1.0" encoding="utf-8"?>
<!-- Generator: Adobe Illustrator 16.0.3, SVG Export Plug-In . SVG Version: 6.00 Build 0)  -->
<!DOCTYPE svg PUBLIC "-//W3C//DTD SVG 1.1//EN" "http://www.w3.org/Graphics/SVG/1.1/DTD/svg11.dtd">
<svg version="1.1" xmlns="http://www.w3.org/2000/svg" xmlns:xlink="http://www.w3.org/1999/xlink" x="0px" y="0px"
	 width="1004.234px" height="352px" viewBox="3341.806 -415.371 1004.234 352"
	 enable-background="new 3341.806 -415.371 1004.234 352" xml:space="preserve">
<g id="Layer_1">
	<g id="Layer_1_1_">
	</g>
</g>
<g id="Layer_3_3_">
</g>
<g id="Layer_4">
</g>
<g id="Layer_2_1_">
</g>
<g id="Layer_5">
	<g>
		<g>
			<path fill="#FFFFFF" d="M4162.625-214.437c4.21,10.13,10.028,18.925,17.491,26.38c7.454,7.458,16.252,13.378,26.377,17.783
				c10.142,4.293,21.035,6.404,32.689,6.404c11.766,0,22.659-2.113,32.795-6.404c10.129-4.405,18.919-10.323,26.381-17.783
				c0.189-0.194,0.383-0.375,0.568-0.658c7.168-7.274,12.806-15.875,17.011-25.722c4.21-10.13,6.317-20.936,6.317-32.399
				c0-11.488-2.107-22.274-6.317-32.315c-4.205-9.838-9.843-18.54-17.011-25.803c-0.186-0.287-0.379-0.48-0.568-0.673
				c-7.462-7.456-16.25-13.382-26.381-17.677c-10.136-4.407-21.029-6.509-32.795-6.509c-11.654,0-22.548,2.102-32.689,6.509
				c-10.125,4.295-18.923,10.221-26.377,17.677c-7.463,7.454-13.281,16.348-17.491,26.476c-4.312,10.041-6.403,20.827-6.403,32.315
				C4156.222-235.372,4158.313-224.567,4162.625-214.437z M4182.603-274.562c3.73-7.931,8.6-14.629,14.621-20.07
				c5.931-5.451,12.627-9.462,19.977-12.239c7.365-2.678,14.724-4.019,21.98-4.019c7.37,0,14.728,1.341,22.08,4.019
				c7.361,2.777,14.055,6.788,20.073,12.239c5.933,5.439,10.8,12.139,14.538,20.07c1.238,2.669,2.286,5.451,3.052,8.413
				c1.729,5.834,2.478,12.332,2.478,19.312c0,7.072-0.748,13.487-2.478,19.304c-0.766,2.967-1.812,5.737-3.052,8.416
				c-3.738,7.928-8.605,14.621-14.538,20.077c-6.017,5.439-12.712,9.458-20.073,12.225c-7.355,2.684-14.713,4.011-22.08,4.011
				c-7.257,0-14.615-1.328-21.98-4.011c-7.35-2.767-14.046-6.786-19.977-12.225c-6.021-5.456-10.894-12.149-14.621-20.077
				c-3.729-7.941-5.555-17.113-5.555-27.72C4177.048-257.354,4178.874-266.625,4182.603-274.562z"/>
			<polygon fill="#FFFFFF" points="4121.116,-182.32 4102.508,-182.32 4102.508,-311.342 4121.562,-311.342 4121.562,-326.307 
				4062.654,-326.307 4062.654,-311.342 4081.704,-311.342 4081.704,-182.32 4062.205,-182.32 4062.205,-167.346 4121.116,-167.346 
							"/>
			<polygon fill="#FFFFFF" points="3926.978,-326.307 3868.08,-326.307 3868.08,-311.342 3885.601,-311.342 3925.683,-246.615 
				3925.683,-246.168 3885.816,-182.31 3868.08,-182.31 3868.08,-167.358 3926.978,-167.358 3926.978,-182.31 3907.062,-182.31 
				3936.419,-228.783 3936.85,-228.783 3964.888,-182.31 3948.689,-182.31 3948.689,-167.358 4005.398,-167.358 4005.398,-182.31 
				3987.66,-182.31 3948.48,-247.498 3948.48,-247.937 3990.283,-311.342 4006.074,-311.342 4006.074,-326.307 3948.689,-326.307 
				3948.689,-311.342 3967.072,-311.342 3937.957,-265.115 3937.491,-265.115 3908.829,-311.342 3926.978,-311.342 			"/>
			<polygon fill="#FFFFFF" points="3739.189,-182.31 3719.269,-182.31 3748.611,-228.783 3749.034,-228.783 3777.085,-182.31 
				3760.878,-182.31 3760.878,-167.358 3817.589,-167.358 3817.589,-182.31 3799.86,-182.31 3760.661,-247.498 3760.661,-247.937 
				3802.476,-311.342 3818.274,-311.342 3818.274,-326.307 3760.878,-326.307 3760.878,-311.342 3779.278,-311.342 
				3750.156,-265.115 3749.704,-265.115 3721.029,-311.342 3739.189,-311.342 3739.189,-326.307 3680.273,-326.307 
				3680.273,-311.342 3697.793,-311.342 3737.897,-246.615 3737.897,-246.168 3697.999,-182.31 3680.273,-182.31 3680.273,-167.358 
				3739.189,-167.358 			"/>
			<polygon fill="#FFFFFF" points="3568.909,-311.342 3587.96,-311.342 3587.96,-182.31 3568.471,-182.31 3568.471,-167.358 
				3627.388,-167.358 3627.388,-182.31 3608.781,-182.31 3608.781,-311.342 3627.821,-311.342 3627.821,-326.307 3568.909,-326.307 
							"/>
			<path fill="#FFFFFF" d="M3370.689-214.912c0.1,0.187,0.1,0.277,0.18,0.475c4.31,10.13,10.129,18.925,17.5,26.38
				c7.453,7.458,16.25,13.378,26.475,17.783c10.128,4.293,21.027,6.404,32.695,6.404c11.652,0,22.647-2.113,32.785-6.404
				c10.135-4.405,18.926-10.323,26.387-17.783c7.446-7.455,13.278-16.251,17.498-26.38c4.287-10.13,6.384-20.936,6.384-32.399
				c0-11.488-2.097-22.274-6.384-32.315c-4.22-10.128-10.052-19.022-17.498-26.476c-7.461-7.456-16.252-13.382-26.387-17.677
				c-10.138-4.407-21.133-6.509-32.785-6.509c-11.668,0-22.567,2.102-32.695,6.509c-10.225,4.295-19.021,10.221-26.475,17.677
				c-7.371,7.454-13.19,16.348-17.5,26.476c-0.08,0.193-0.08,0.289-0.18,0.482c-4.116,9.934-6.129,20.546-6.129,31.833
				C3364.56-235.558,3366.573-224.959,3370.689-214.912z M3390.937-274.562c3.74-7.931,8.615-14.629,14.536-20.07
				c6.034-5.451,12.705-9.462,20.076-12.239c7.362-2.678,14.714-4.019,21.987-4.019c7.357,0,14.615,1.341,21.994,4.019
				c7.444,2.777,14.038,6.788,20.072,12.239c6.009,5.439,10.783,12.139,14.621,20.07c3.625,7.937,5.543,17.206,5.543,27.725
				c0,10.607-1.918,19.779-5.543,27.72c-3.841,7.928-8.612,14.621-14.621,20.077c-6.034,5.439-12.628,9.458-20.072,12.225
				c-7.379,2.684-14.637,4.011-21.994,4.011c-7.273,0-14.625-1.328-21.987-4.011c-7.371-2.767-14.042-6.786-20.076-12.225
				c-5.921-5.456-10.796-12.149-14.536-20.077c-3.729-7.941-5.633-17.113-5.633-27.72
				C3385.304-257.354,3387.208-266.625,3390.937-274.562z"/>
		</g>
	</g>
	<path fill="#4F9CD5" d="M3524.204-279.156c-4.221-10.13-10.055-19.024-17.502-26.471c-7.459-7.458-16.241-13.38-26.382-17.677
		c-10.132-4.41-21.13-6.514-32.784-6.514c-11.669,0-22.565,2.104-32.695,6.514c-10.229,4.297-19.024,10.219-26.471,17.677
		c-7.37,7.447-13.192,16.341-17.502,26.471c-0.088,0.202-0.088,0.289-0.174,0.491c-4.122,9.928-6.137,20.538-6.137,31.827
		c0,0.201,0,0.416,0.012,0.616h166.008c0.015-0.2,0.015-0.416,0.015-0.616C3530.592-258.327,3528.5-269.114,3524.204-279.156z"/>
	<path fill="#6BBEB0" d="M4322.255-242.263c0-0.202,0-0.416-0.013-0.618h-166.011c-0.012,0.202-0.012,0.416-0.012,0.618
		c0,11.289,2.016,21.897,6.137,31.826c0.086,0.202,0.086,0.289,0.176,0.491c4.309,10.13,10.131,19.025,17.5,26.472
		c7.447,7.458,16.242,13.379,26.471,17.676c10.132,4.41,21.028,6.514,32.697,6.514c11.654,0,22.652-2.104,32.783-6.514
		c10.143-4.297,18.926-10.217,26.382-17.676c7.446-7.447,13.28-16.342,17.501-26.472
		C4320.163-219.989,4322.255-230.773,4322.255-242.263z"/>
	<polygon fill="#6BBEB0" points="3587.96,-245.825 3587.96,-182.31 3568.471,-182.31 3568.471,-167.358 3627.388,-167.358 
		3627.388,-182.31 3608.781,-182.31 3608.781,-245.825 	"/>
	<polygon fill="#4F9CD5" points="4081.916,-247.993 4081.916,-311.508 4062.427,-311.508 4062.427,-326.461 4121.343,-326.461 
		4121.343,-311.508 4102.734,-311.508 4102.734,-247.993 	"/>
	<polygon fill="#4F9CD5" points="3761.429,-246.22 3760.661,-247.937 3802.476,-311.342 3818.274,-311.342 3818.274,-326.307 
		3760.878,-326.307 3760.878,-311.342 3779.278,-311.342 3750.156,-265.115 3749.704,-265.115 3721.029,-311.342 3739.189,-311.342 
		3739.189,-326.307 3680.273,-326.307 3680.273,-311.342 3697.793,-311.342 3737.897,-246.615 3737.897,-246.168 	"/>
	<polygon fill="#6BBEB0" points="3925.683,-246.168 3925.683,-246.168 3885.816,-182.31 3868.08,-182.31 3868.08,-167.358 
		3926.978,-167.358 3926.978,-182.31 3907.062,-182.31 3936.419,-228.783 3936.85,-228.783 3964.888,-182.31 3948.689,-182.31 
		3948.689,-167.358 4005.398,-167.358 4005.398,-182.31 3987.66,-182.31 3949.245,-246.22 3949.245,-246.22 	"/>
	<text transform="matrix(1 0 0 1 4177.9805 -93.011)" fill="#FFFFFF" font-family="'ArialMT'" font-size="35.9081">Clientes</text>
	<text transform="matrix(1 0 0 1 4005.3977 -364.0833)" fill="#FFFFFF" font-family="'ArialMT'" font-size="35.9081">Impulsores</text>
	<text transform="matrix(1 0 0 1 3858.6233 -93.011)" fill="#FFFFFF" font-family="'ArialMT'" font-size="35.9081">Productos</text>
	<text transform="matrix(1 0 0 1 3707.4495 -364.0833)" fill="#FFFFFF" font-family="'ArialMT'" font-size="35.9081">Saas</text>
	<text transform="matrix(1 0 0 1 3515.4729 -93.011)" fill="#FFFFFF" font-family="'ArialMT'" font-size="35.9081">Desarrollo</text>
	<text transform="matrix(1 0 0 1 3370.5969 -364.0833)" fill="#FFFFFF" font-family="'ArialMT'" font-size="35.9081">Nosotros</text>
	<rect id="clientes" x="4146.899" y="-244.552" opacity="0" fill="#FFFFFF" width="190.582" height="171.88"/>
	<rect id="impulsores" x="3996.968" y="-415.371" opacity="0" fill="#FFFFFF" width="191.51" height="172.49"/>
	<rect id="productos" x="3838.218" y="-247.993" opacity="0" fill="#FFFFFF" width="196.548" height="175.322"/>
	<rect id="saas" x="3659.308" y="-415.371" opacity="0" fill="#FFFFFF" width="178.91" height="167.378"/>
	<rect id="desarrollo" x="3496.777" y="-247.993" opacity="0" fill="#FFFFFF" width="202.191" height="181.622"/>
	<rect id="nosotros" x="3341.806" y="-415.371" opacity="0" fill="#FFFFFF" width="206.628" height="169.546"/>
</g>
</svg>
