<?xml version="1.0" encoding="utf-8"?>
<!-- Generator: Adobe Illustrator 16.0.3, SVG Export Plug-In . SVG Version: 6.00 Build 0)  -->
<!DOCTYPE svg PUBLIC "-//W3C//DTD SVG 1.1//EN" "http://www.w3.org/Graphics/SVG/1.1/DTD/svg11.dtd">
<svg version="1.1" xmlns="http://www.w3.org/2000/svg" xmlns:xlink="http://www.w3.org/1999/xlink" x="0px" y="0px"
	 width="331.712px" height="82.363px" viewBox="0 0 331.712 82.363" enable-background="new 0 0 331.712 82.363"
	 xml:space="preserve">
<g id="Layer_1">
</g>
<g id="Layer_2">
	<g>
		<path fill="#FFFFFF" d="M12.69,64.692H7.793v15.82H6.744v-15.82H1.321v-1.049H12.69V64.692z"/>
		<path fill="#FFFFFF" d="M38.91,80.512H28.482v-16.87h9.735v1.049h-8.686v6.281h7.166v1.048h-7.166v7.439h9.378V80.512z"/>
		<path fill="#FFFFFF" d="M69.414,78.104c-0.841,0.85-1.817,1.521-2.914,2.007c-1.1,0.489-2.283,0.734-3.557,0.734
			c-1.252-0.037-2.406-0.269-3.458-0.689c-1.048-0.429-1.993-1.055-2.821-1.881c-0.775-0.813-1.375-1.746-1.811-2.799
			c-0.433-1.049-0.65-2.173-0.65-3.372c0-1.215,0.218-2.354,0.65-3.415c0.436-1.06,1.036-1.997,1.811-2.809
			c0.774-0.789,1.7-1.415,2.766-1.865c1.071-0.453,2.241-0.679,3.513-0.679c1.274,0,2.457,0.245,3.557,0.734
			c1.097,0.487,2.073,1.155,2.914,2.004l-0.717,0.744c-0.753-0.773-1.625-1.372-2.601-1.796c-0.977-0.421-2.029-0.634-3.153-0.634
			c-1.124,0-2.159,0.2-3.096,0.607c-0.939,0.405-1.756,0.955-2.434,1.646c-0.682,0.69-1.211,1.505-1.588,2.447
			c-0.38,0.938-0.569,1.944-0.569,3.014c0,1.052,0.189,2.047,0.569,2.988c0.377,0.939,0.906,1.755,1.588,2.45
			c0.678,0.689,1.495,1.238,2.434,1.641c0.938,0.41,1.972,0.61,3.096,0.61c1.104,0,2.154-0.215,3.125-0.649
			c0.981-0.431,1.844-1.04,2.601-1.809L69.414,78.104z"/>
		<path fill="#FFFFFF" d="M99.423,80.512h-1.052v-8.491H87.808v8.491h-1.047v-16.87h1.047v7.331h10.563v-7.331h1.052V80.512z"/>
		<path fill="#FFFFFF" d="M117.234,62.646L129.736,78.8V63.643h1.024v18.2l-12.471-16.151v14.82h-1.055V62.646z"/>
		<path fill="#FFFFFF" d="M156.094,80.846c-1.273,0-2.441-0.227-3.499-0.682c-1.06-0.447-1.978-1.078-2.751-1.889
			c-0.794-0.797-1.405-1.718-1.838-2.77c-0.432-1.052-0.653-2.186-0.653-3.401c0-1.215,0.221-2.354,0.653-3.415
			c0.434-1.06,1.044-1.988,1.838-2.78c0.773-0.794,1.691-1.417,2.751-1.881c1.058-0.46,2.225-0.692,3.499-0.692
			c1.271,0,2.441,0.231,3.501,0.692c1.06,0.463,1.983,1.086,2.777,1.881c0.776,0.792,1.384,1.72,1.828,2.78
			c0.443,1.061,0.661,2.2,0.661,3.415c0,1.215-0.218,2.349-0.661,3.401c-0.444,1.052-1.052,1.973-1.828,2.77
			c-0.794,0.811-1.717,1.442-2.777,1.889C158.535,80.62,157.365,80.846,156.094,80.846z M148.408,72.105
			c0,1.052,0.189,2.047,0.576,2.988c0.389,0.939,0.927,1.755,1.604,2.45c0.685,0.689,1.5,1.238,2.438,1.641
			c0.941,0.41,1.961,0.61,3.068,0.61c1.126,0,2.159-0.2,3.099-0.61c0.939-0.403,1.751-0.952,2.437-1.641
			c0.681-0.695,1.211-1.51,1.598-2.45c0.385-0.941,0.585-1.936,0.585-2.988c0-1.07-0.2-2.067-0.585-3.001
			c-0.387-0.932-0.917-1.747-1.598-2.447c-0.685-0.702-1.498-1.254-2.437-1.659c-0.939-0.408-1.973-0.607-3.099-0.607
			c-1.107,0-2.126,0.2-3.068,0.607c-0.938,0.405-1.753,0.957-2.438,1.659c-0.678,0.7-1.215,1.516-1.604,2.447
			C148.597,70.038,148.408,71.035,148.408,72.105z"/>
		<path fill="#FFFFFF" d="M191.91,80.512h-10.261v-16.87h1.026V79.46h9.235V80.512z"/>
		<path fill="#FFFFFF" d="M215.948,80.846c-1.276,0-2.445-0.227-3.502-0.682c-1.058-0.447-1.978-1.078-2.751-1.889
			c-0.792-0.797-1.405-1.718-1.84-2.77c-0.434-1.052-0.649-2.186-0.649-3.401c0-1.215,0.216-2.354,0.649-3.415
			c0.435-1.06,1.047-1.988,1.84-2.78c0.773-0.794,1.693-1.417,2.751-1.881c1.057-0.46,2.226-0.692,3.502-0.692
			c1.267,0,2.438,0.231,3.498,0.692c1.06,0.463,1.982,1.086,2.777,1.881c0.776,0.792,1.384,1.72,1.828,2.78
			c0.441,1.061,0.664,2.2,0.664,3.415c0,1.215-0.222,2.349-0.664,3.401c-0.444,1.052-1.052,1.973-1.828,2.77
			c-0.795,0.811-1.718,1.442-2.777,1.889C218.386,80.62,217.215,80.846,215.948,80.846z M208.256,72.105
			c0,1.052,0.192,2.047,0.582,2.988c0.387,0.939,0.923,1.755,1.602,2.45c0.684,0.689,1.499,1.238,2.438,1.641
			c0.939,0.41,1.962,0.61,3.071,0.61c1.119,0,2.157-0.2,3.096-0.61c0.938-0.403,1.751-0.952,2.435-1.641
			c0.682-0.695,1.215-1.51,1.599-2.45c0.387-0.941,0.584-1.936,0.584-2.988c0-1.07-0.198-2.067-0.584-3.001
			c-0.384-0.932-0.917-1.747-1.599-2.447c-0.684-0.702-1.497-1.254-2.435-1.659c-0.939-0.408-1.977-0.607-3.096-0.607
			c-1.108,0-2.132,0.2-3.071,0.607c-0.939,0.405-1.754,0.957-2.438,1.659c-0.679,0.7-1.215,1.516-1.602,2.447
			C208.448,70.038,208.256,71.035,208.256,72.105z"/>
		<path fill="#FFFFFF" d="M249.188,80.846c-1.27,0-2.438-0.227-3.501-0.682c-1.054-0.447-1.983-1.078-2.774-1.889
			c-0.774-0.813-1.379-1.746-1.813-2.799c-0.437-1.049-0.649-2.173-0.649-3.372c0-1.215,0.213-2.354,0.649-3.415
			c0.434-1.06,1.039-1.997,1.813-2.809c0.791-0.789,1.72-1.415,2.774-1.865c1.063-0.453,2.231-0.679,3.501-0.679
			c1.273,0,2.458,0.245,3.56,0.734c1.094,0.487,2.054,1.155,2.885,2.004l-0.689,0.744c-0.755-0.773-1.617-1.372-2.583-1.796
			c-0.972-0.421-2.031-0.634-3.173-0.634c-1.122,0-2.157,0.2-3.096,0.607c-0.942,0.405-1.754,0.955-2.436,1.646
			c-0.682,0.69-1.215,1.505-1.604,2.447c-0.384,0.938-0.579,1.944-0.579,3.014c0,1.052,0.195,2.047,0.579,2.988
			c0.389,0.939,0.923,1.755,1.604,2.45c0.681,0.689,1.494,1.238,2.436,1.641c0.939,0.41,1.974,0.61,3.096,0.61h0.334
			c0.755,0,1.502-0.113,2.225-0.344c0.732-0.229,1.384-0.552,1.965-0.968c0.581-0.417,1.05-0.903,1.41-1.45
			c0.361-0.558,0.537-1.165,0.537-1.828v-2.381h-5.5v-1.052h6.555v3.68c0,0.573-0.16,1.179-0.486,1.813
			c-0.322,0.635-0.798,1.218-1.427,1.744c-0.626,0.523-1.407,0.96-2.351,1.313c-0.937,0.349-2.019,0.526-3.234,0.526H249.188z"/>
		<path fill="#FFFFFF" d="M275.691,80.512h-1.053v-16.87h1.053V80.512z"/>
		<path fill="#FFFFFF" d="M303.954,80.512h-10.43v-16.87h9.736v1.049h-8.681v6.281h7.162v1.048h-7.162v7.439h9.374V80.512z"/>
		<path fill="#FFFFFF" d="M324.585,80.817c-1.254,0-2.341-0.344-3.262-1.036c-0.926-0.692-1.633-1.563-2.13-2.615l0.773-0.773
			c0.441,0.976,1.044,1.784,1.811,2.42c0.764,0.637,1.7,0.955,2.808,0.955c0.905,0,1.637-0.134,2.199-0.399
			c0.563-0.269,1-0.592,1.313-0.968c0.315-0.379,0.529-0.774,0.636-1.175c0.11-0.406,0.169-0.75,0.169-1.026
			c0-0.276-0.032-0.565-0.098-0.871c-0.065-0.302-0.231-0.631-0.51-0.981c-0.278-0.35-0.697-0.705-1.246-1.065
			c-0.556-0.361-1.309-0.732-2.269-1.119c-1.033-0.408-1.871-0.808-2.503-1.205c-0.634-0.394-1.128-0.789-1.481-1.176
			c-0.35-0.384-0.589-0.775-0.716-1.163c-0.134-0.387-0.197-0.771-0.197-1.16c0-0.479,0.084-0.974,0.252-1.481
			c0.166-0.505,0.434-0.971,0.815-1.395c0.376-0.427,0.868-0.77,1.478-1.037c0.611-0.271,1.355-0.402,2.238-0.402
			c1.276,0,2.315,0.294,3.129,0.884c0.813,0.592,1.428,1.413,1.852,2.46l-0.828,0.75c-0.334-1.016-0.832-1.773-1.497-2.283
			c-0.661-0.508-1.545-0.761-2.655-0.761c-0.81,0-1.465,0.129-1.962,0.39c-0.503,0.255-0.88,0.563-1.147,0.91
			c-0.265,0.353-0.444,0.71-0.525,1.079c-0.082,0.368-0.125,0.665-0.125,0.886c0,0.26,0.072,0.534,0.219,0.831
			c0.15,0.295,0.389,0.6,0.722,0.924c0.334,0.326,0.772,0.655,1.314,0.994c0.544,0.345,1.221,0.682,2.034,1.012
			c0.997,0.405,1.802,0.821,2.42,1.245c0.616,0.425,1.094,0.847,1.434,1.268c0.342,0.425,0.575,0.846,0.693,1.262
			c0.122,0.415,0.182,0.815,0.182,1.202c0,0.407-0.083,0.87-0.251,1.396c-0.169,0.524-0.45,1.029-0.855,1.508
			c-0.406,0.479-0.949,0.887-1.632,1.218C326.503,80.649,325.637,80.817,324.585,80.817z"/>
	</g>
	<g>
		<path fill="#FFFFFF" d="M276.643,37.801c1.453,3.364,3.46,6.286,6.034,8.762c2.571,2.478,5.607,4.444,9.1,5.906
			c3.498,1.426,7.257,2.127,11.276,2.127c4.06,0,7.818-0.702,11.315-2.127c3.495-1.462,6.526-3.428,9.099-5.906
			c0.067-0.064,0.133-0.125,0.197-0.219c2.473-2.415,4.418-5.272,5.87-8.542c1.452-3.365,2.178-6.954,2.178-10.761
			c0-3.815-0.726-7.398-2.178-10.734c-1.452-3.268-3.396-6.158-5.87-8.57c-0.064-0.095-0.129-0.159-0.197-0.223
			c-2.573-2.477-5.604-4.445-9.099-5.872c-3.497-1.463-7.255-2.162-11.315-2.162c-4.02,0-7.779,0.698-11.276,2.162
			c-3.493,1.427-6.529,3.395-9.1,5.872c-2.574,2.476-4.582,5.43-6.034,8.793c-1.488,3.335-2.209,6.918-2.209,10.734
			C274.434,30.847,275.155,34.437,276.643,37.801z M283.534,17.832c1.288-2.634,2.969-4.859,5.045-6.666
			c2.046-1.811,4.356-3.143,6.892-4.065c2.541-0.889,5.079-1.335,7.583-1.335c2.542,0,5.081,0.446,7.617,1.335
			c2.54,0.922,4.849,2.254,6.925,4.065c2.047,1.807,3.726,4.032,5.017,6.666c0.427,0.887,0.788,1.81,1.052,2.793
			c0.597,1.938,0.854,4.096,0.854,6.415c0,2.349-0.257,4.479-0.854,6.412c-0.264,0.985-0.625,1.905-1.052,2.795
			c-1.291,2.633-2.969,4.856-5.017,6.668c-2.077,1.806-4.385,3.142-6.925,4.06c-2.537,0.892-5.075,1.333-7.617,1.333
			c-2.503,0-5.042-0.441-7.583-1.333c-2.536-0.918-4.846-2.254-6.892-4.06c-2.076-1.812-3.758-4.035-5.045-6.668
			c-1.287-2.638-1.915-5.685-1.915-9.207C281.619,23.546,282.247,20.467,283.534,17.832z"/>
		<polygon fill="#FFFFFF" points="262.323,48.468 255.904,48.468 255.904,5.615 262.477,5.615 262.477,0.645 242.153,0.645 
			242.153,5.615 248.727,5.615 248.727,48.468 242,48.468 242,53.442 262.323,53.442 		"/>
		<polygon fill="#FFFFFF" points="195.347,0.645 175.028,0.645 175.028,5.615 181.074,5.615 194.901,27.114 194.901,27.262 
			181.147,48.472 175.028,48.472 175.028,53.438 195.347,53.438 195.347,48.472 188.476,48.472 198.605,33.036 198.754,33.036 
			208.426,48.472 202.838,48.472 202.838,53.438 222.402,53.438 222.402,48.472 216.283,48.472 202.765,26.82 202.765,26.674 
			217.188,5.615 222.635,5.615 222.635,0.645 202.838,0.645 202.838,5.615 209.179,5.615 199.136,20.969 198.975,20.969 
			189.087,5.615 195.347,5.615 		"/>
		<polygon fill="#FFFFFF" points="130.563,48.472 123.691,48.472 133.813,33.036 133.96,33.036 143.637,48.472 138.046,48.472 
			138.046,53.438 157.61,53.438 157.61,48.472 151.494,48.472 137.972,26.82 137.972,26.674 152.396,5.615 157.847,5.615 
			157.847,0.645 138.046,0.645 138.046,5.615 144.393,5.615 134.347,20.969 134.191,20.969 124.297,5.615 130.563,5.615 
			130.563,0.645 110.238,0.645 110.238,5.615 116.282,5.615 130.118,27.114 130.118,27.262 116.354,48.472 110.238,48.472 
			110.238,53.438 130.563,53.438 		"/>
		<polygon fill="#FFFFFF" points="71.819,5.615 78.393,5.615 78.393,48.472 71.669,48.472 71.669,53.438 91.994,53.438 
			91.994,48.472 85.574,48.472 85.574,5.615 92.143,5.615 92.143,0.645 71.819,0.645 		"/>
		<path fill="#FFFFFF" d="M3.437,37.643c0.033,0.062,0.033,0.092,0.061,0.158c1.488,3.364,3.495,6.286,6.037,8.762
			c2.571,2.478,5.607,4.444,9.134,5.906c3.493,1.426,7.255,2.127,11.28,2.127c4.019,0,7.813-0.702,11.31-2.127
			c3.497-1.462,6.529-3.428,9.104-5.906c2.567-2.476,4.58-5.397,6.036-8.762c1.48-3.365,2.203-6.954,2.203-10.761
			c0-3.815-0.723-7.398-2.203-10.734c-1.456-3.363-3.468-6.317-6.036-8.793c-2.574-2.477-5.607-4.445-9.104-5.872
			c-3.497-1.463-7.291-2.162-11.31-2.162c-4.025,0-7.787,0.698-11.28,2.162c-3.527,1.427-6.563,3.395-9.134,5.872
			c-2.542,2.476-4.549,5.43-6.037,8.793c-0.028,0.065-0.028,0.096-0.061,0.161c-1.42,3.3-2.115,6.824-2.115,10.573
			C1.321,30.787,2.016,34.307,3.437,37.643z M10.422,17.832c1.289-2.634,2.97-4.859,5.014-6.666
			c2.082-1.811,4.382-3.143,6.926-4.065c2.541-0.889,5.076-1.335,7.586-1.335c2.538,0,5.042,0.446,7.587,1.335
			c2.569,0.922,4.843,2.254,6.924,4.065c2.075,1.807,3.72,4.032,5.045,6.666c1.251,2.636,1.912,5.714,1.912,9.208
			c0,3.522-0.661,6.569-1.912,9.207c-1.325,2.633-2.97,4.856-5.045,6.668c-2.081,1.806-4.354,3.142-6.924,4.06
			c-2.545,0.892-5.049,1.333-7.587,1.333c-2.51,0-5.045-0.441-7.586-1.333c-2.544-0.918-4.845-2.254-6.926-4.06
			c-2.044-1.812-3.725-4.035-5.014-6.668c-1.287-2.638-1.943-5.685-1.943-9.207C8.479,23.546,9.135,20.467,10.422,17.832z"/>
	</g>
</g>
</svg>
