<?xml version="1.0" encoding="utf-8"?>
<!-- Generator: Adobe Illustrator 16.0.3, SVG Export Plug-In . SVG Version: 6.00 Build 0)  -->
<!DOCTYPE svg PUBLIC "-//W3C//DTD SVG 1.1//EN" "http://www.w3.org/Graphics/SVG/1.1/DTD/svg11.dtd">
<svg version="1.1" xmlns="http://www.w3.org/2000/svg" xmlns:xlink="http://www.w3.org/1999/xlink" x="0px" y="0px"
	 width="424.479px" height="647.968px" viewBox="-4918.347 -1272.465 424.479 647.968"
	 enable-background="new -4918.347 -1272.465 424.479 647.968" xml:space="preserve">
<g id="Layer_1">
	<g id="Layer_3">
	</g>
</g>
<g id="Layer_6">
</g>
<g id="Layer_7">
</g>
<g id="Layer_15">
	<g>
		<linearGradient id="SVGID_1_" gradientUnits="userSpaceOnUse" x1="-4865.2856" y1="-1217.5295" x2="-4715.2095" y2="-1067.4534">
			<stop  offset="0" style="stop-color:#000000;stop-opacity:0.2"/>
			<stop  offset="1" style="stop-color:#000000;stop-opacity:0"/>
		</linearGradient>
		<rect x="-4918.346" y="-1272.465" fill="url(#SVGID_1_)" width="212.24" height="215.989"/>
		<text transform="matrix(1 0 0 1 -4863.3779 -1103.052)" fill="#FFFFFF" font-family="'MyriadPro-Regular'" font-size="28">Nosotros</text>
		<path fill="#4F9CD5" d="M-4733.445-1182.244c-4.27-10.246-10.17-19.243-17.701-26.774c-7.543-7.544-16.426-13.534-26.684-17.879
			c-10.246-4.46-21.371-6.588-33.158-6.588c-11.8,0-22.823,2.128-33.068,6.588c-10.349,4.346-19.243,10.335-26.775,17.879
			c-7.453,7.531-13.342,16.528-17.699,26.774c-0.09,0.204-0.09,0.293-0.179,0.497c-4.167,10.042-6.205,20.755-6.205,32.174
			c0,0.204,0,0.609,0.013,0.609h167.906c0.013,0,0.013-0.405,0.013-0.609C-4726.984-1161.195-4729.101-1172.088-4733.445-1182.244z"
			/>
	</g>
	<g>
		<linearGradient id="SVGID_3_" gradientUnits="userSpaceOnUse" x1="-4546.9268" y1="-679.4314" x2="-4697.0024" y2="-829.5072">
			<stop  offset="0" style="stop-color:#000000;stop-opacity:0.2"/>
			<stop  offset="1" style="stop-color:#000000;stop-opacity:0"/>
		</linearGradient>
		<rect x="-4706.106" y="-840.486" fill="url(#SVGID_3_)" width="212.239" height="215.989"/>
		<text transform="matrix(1 0 0 1 -4646.5225 -770.5847)" fill="#FFFFFF" font-family="'MyriadPro-Regular'" font-size="28">Clientes</text>
		<path fill="#6BBEB0" d="M-4516.02-740.69c0-0.206,0-0.046-0.014-0.803h-167.905c-0.014,0.757-0.014,0.598-0.014,0.803
			c0,11.418,2.039,22.236,6.207,32.277c0.088,0.205,0.088,0.337,0.177,0.543c4.359,10.244,10.246,19.265,17.7,26.796
			c7.532,7.544,16.427,13.544,26.774,17.89c10.246,4.46,21.27,6.593,33.069,6.593c11.787,0,22.912-2.126,33.158-6.586
			c10.258-4.345,19.14-10.333,26.684-17.877c7.532-7.531,13.432-16.617,17.702-26.862
			C-4518.135-718.073-4516.02-729.069-4516.02-740.69z"/>
	</g>
	<g>
		<linearGradient id="SVGID_4_" gradientUnits="userSpaceOnUse" x1="-4546.9268" y1="-1217.53" x2="-4697.0024" y2="-1067.4543">
			<stop  offset="0" style="stop-color:#000000;stop-opacity:0.2"/>
			<stop  offset="1" style="stop-color:#000000;stop-opacity:0"/>
		</linearGradient>
		<rect x="-4706.106" y="-1272.465" fill="url(#SVGID_4_)" width="212.239" height="215.989"/>
		<text transform="matrix(1 0 0 1 -4662.6201 -1216.0618)" fill="#FFFFFF" font-family="'MyriadPro-Regular'" font-size="28">Desarrollo</text>
		<polygon fill="#6BBEB0" points="-4610.068,-1191.225 -4610.068,-1126.984 -4629.781,-1126.984 -4629.781,-1111.861 
			-4570.192,-1111.861 -4570.192,-1126.984 -4589.012,-1126.984 -4589.012,-1191.225 		"/>
	</g>
	<g>
		<linearGradient id="SVGID_6_" gradientUnits="userSpaceOnUse" x1="-4865.2866" y1="-679.4309" x2="-4715.2104" y2="-829.5071">
			<stop  offset="0" style="stop-color:#000000;stop-opacity:0.2"/>
			<stop  offset="1" style="stop-color:#000000;stop-opacity:0"/>
		</linearGradient>
		<rect x="-4918.346" y="-840.486" fill="url(#SVGID_6_)" width="212.24" height="215.989"/>
		<text transform="matrix(1 0 0 1 -4877.2588 -656.5901)" fill="#FFFFFF" font-family="'MyriadPro-Regular'" font-size="28">Impulsores</text>
		<polygon fill="#4F9CD5" points="-4822.309,-706.814 -4822.309,-771.055 -4842.021,-771.055 -4842.021,-786.178 
			-4782.432,-786.178 -4782.432,-771.055 -4801.253,-771.055 -4801.253,-706.814 		"/>
	</g>
	<g>
		<linearGradient id="SVGID_7_" gradientUnits="userSpaceOnUse" x1="-4494.6172" y1="-948.4807" x2="-4706.8569" y2="-948.4807">
			<stop  offset="0" style="stop-color:#000000;stop-opacity:0.2"/>
			<stop  offset="1" style="stop-color:#000000;stop-opacity:0"/>
		</linearGradient>
		<rect x="-4706.106" y="-1056.475" fill="url(#SVGID_7_)" width="212.24" height="215.989"/>
		<text transform="matrix(1 0 0 1 -4625.9707 -875.5793)" fill="#FFFFFF" font-family="'MyriadPro-Regular'" font-size="28">Saas</text>
		<polygon fill="#4F9CD5" points="-4587.691,-930.182 -4588.467,-931.919 -4546.176,-996.048 -4530.197,-996.048 
			-4530.197,-1011.186 -4588.248,-1011.186 -4588.248,-996.048 -4569.64,-996.048 -4599.093,-949.295 -4599.55,-949.295 
			-4628.554,-996.048 -4610.187,-996.048 -4610.187,-1011.186 -4669.777,-1011.186 -4669.777,-996.048 -4652.056,-996.048 
			-4611.494,-930.581 -4611.494,-930.128 		"/>
	</g>
	<g>
		<linearGradient id="SVGID_9_" gradientUnits="userSpaceOnUse" x1="-4918.3462" y1="-949.5432" x2="-4706.1069" y2="-949.5432">
			<stop  offset="0" style="stop-color:#000000;stop-opacity:0.2"/>
			<stop  offset="1" style="stop-color:#000000;stop-opacity:0"/>
		</linearGradient>
		<rect x="-4918.346" y="-1057.538" fill="url(#SVGID_9_)" width="212.239" height="215.989"/>
		<text transform="matrix(1 0 0 1 -4871.418 -991.134)" fill="#FFFFFF" font-family="'MyriadPro-Regular'" font-size="28">Productos</text>
		<polygon fill="#6BBEB0" points="-4823.408,-956.351 -4823.408,-956.351 -4863.73,-891.764 -4881.67,-891.764 -4881.67,-876.641 
			-4822.1,-876.641 -4822.1,-891.764 -4842.244,-891.764 -4812.55,-938.768 -4812.115,-938.768 -4783.755,-891.764 
			-4800.14,-891.764 -4800.14,-876.641 -4742.783,-876.641 -4742.783,-891.764 -4760.722,-891.764 -4799.576,-956.405 
			-4799.576,-956.405 		"/>
	</g>
</g>
</svg>
