<?xml version="1.0" encoding="utf-8"?>
<!-- Generator: Adobe Illustrator 16.0.3, SVG Export Plug-In . SVG Version: 6.00 Build 0)  -->
<!DOCTYPE svg PUBLIC "-//W3C//DTD SVG 1.1//EN" "http://www.w3.org/Graphics/SVG/1.1/DTD/svg11.dtd">
<svg version="1.1" xmlns="http://www.w3.org/2000/svg" xmlns:xlink="http://www.w3.org/1999/xlink" x="0px" y="0px"
	 width="227.833px" height="624px" viewBox="0 0 227.833 624" enable-background="new 0 0 227.833 624" xml:space="preserve">
<g id="Layer_1">
</g>
<g id="Layer_2">
	<path fill="#4F9CD5" d="M216.431,71.665c-5.636-13.528-13.427-25.407-23.371-35.35c-9.959-9.96-21.687-17.869-35.232-23.606
		C144.3,6.819,129.612,4.01,114.049,4.01c-15.58,0-30.134,2.81-43.662,8.699C56.724,18.446,44.98,26.354,35.036,36.315
		c-9.841,9.943-17.615,21.822-23.37,35.35c-0.118,0.269-0.118,0.387-0.236,0.656c-5.502,13.258-8.194,27.425-8.194,42.501
		c0,0.27,0,0.555,0.017,0.825h221.692c0.017-0.27,0.017-0.555,0.017-0.825C224.962,99.478,222.169,85.075,216.431,71.665z"/>
	<path fill="#6BBEB0" d="M225.804,507.901c0-0.27,0-0.555-0.018-0.824H4.095c-0.018,0.27-0.018,0.555-0.018,0.824
		c0,15.076,2.692,29.243,8.196,42.501c0.116,0.27,0.116,0.387,0.234,0.657c5.754,13.527,13.528,25.406,23.37,35.35
		c9.944,9.961,21.689,17.869,35.35,23.606c13.529,5.889,28.083,8.699,43.663,8.699c15.563,0,30.251-2.81,43.78-8.699
		c13.544-5.738,25.271-13.646,35.231-23.606c9.944-9.943,17.734-21.822,23.372-35.35
		C223.011,537.648,225.804,523.246,225.804,507.901z"/>
	<polygon fill="#6BBEB0" points="100.788,97.817 100.788,182.637 74.761,182.637 74.761,202.604 153.439,202.604 153.439,182.637 
		128.591,182.637 128.591,97.817 	"/>
	<polygon fill="#4F9CD5" points="100.788,520.537 100.788,435.717 74.761,435.717 74.761,415.75 153.438,415.75 153.438,435.717 
		128.589,435.717 128.589,520.537 	"/>
	<polygon fill="#4F9CD5" points="131.175,309.555 130.149,307.262 185.988,222.59 207.086,222.59 207.086,202.604 130.438,202.604 
		130.438,222.59 155.008,222.59 116.121,284.321 115.517,284.321 77.221,222.59 101.473,222.59 101.473,202.604 22.794,202.604 
		22.794,222.59 46.191,222.59 99.748,309.029 99.748,309.625 	"/>
	<polygon fill="#6BBEB0" points="100.176,309.697 100.176,309.697 46.938,394.973 23.252,394.973 23.252,414.94 101.904,414.94 
		101.904,394.973 75.307,394.973 114.513,332.913 115.088,332.913 152.532,394.973 130.898,394.973 130.898,414.94 206.629,414.94 
		206.629,394.973 182.944,394.973 131.643,309.625 131.643,309.625 	"/>
</g>
</svg>
