<?xml version="1.0" encoding="utf-8"?>
<!-- Generator: Adobe Illustrator 16.0.3, SVG Export Plug-In . SVG Version: 6.00 Build 0)  -->
<!DOCTYPE svg PUBLIC "-//W3C//DTD SVG 1.1//EN" "http://www.w3.org/Graphics/SVG/1.1/DTD/svg11.dtd">
<svg version="1.1" xmlns="http://www.w3.org/2000/svg" xmlns:xlink="http://www.w3.org/1999/xlink" x="0px" y="0px" width="38.25px"
	 height="41.333px" viewBox="-1471.611 -1256.704 38.25 41.333" enable-background="new -1471.611 -1256.704 38.25 41.333"
	 xml:space="preserve">
<g id="Layer_1">
	<g id="Layer_1_1_">
		<ellipse opacity="0.3" fill="#020202" cx="-1452.964" cy="-1217.251" rx="3.695" ry="1.504"/>
		<path fill-rule="evenodd" clip-rule="evenodd" fill="#1F2F68" d="M-1452.844-1253.794c7.307-0.013,13.668,5.204,15.034,12.371
			c0.829,4.355-0.025,8.44-2.151,12.28c-2.056,3.713-4.969,6.661-8.385,9.122c-1.341,0.966-2.791,1.782-4.185,2.671
			c-0.22,0.139-0.4,0.123-0.625,0.001c-4.238-2.288-7.965-5.197-10.932-9.021c-1.896-2.441-3.258-5.146-3.929-8.181
			c-2.001-9.03,3.522-16.707,11.245-18.744C-1455.486-1253.633-1454.173-1253.79-1452.844-1253.794z M-1452.968-1227.811
			c5.83-0.008,10.513-4.703,10.513-10.542c0-5.771-4.731-10.476-10.521-10.463c-5.8,0.011-10.496,4.701-10.504,10.488
			C-1463.49-1232.537-1458.76-1227.804-1452.968-1227.811z"/>
		<path fill-rule="evenodd" clip-rule="evenodd" fill="#0C193D" d="M-1439.959-1229.146c-2.057,3.708-4.964,6.659-8.38,9.125
			c-1.342,0.964-2.789,1.782-4.19,2.673c-0.218,0.129-0.394,0.116-0.626,0c-0.045-0.015-0.074-0.045-0.118-0.073
			c1.328-0.832,2.685-1.621,3.957-2.526c3.416-2.453,6.322-5.417,8.381-9.126c2.13-3.84,2.979-7.926,2.161-12.279
			c-1.374-7.168-7.74-12.38-15.039-12.366c-0.249,0-0.512,0-0.76,0.03c0.57-0.072,1.154-0.102,1.738-0.102
			c7.3-0.017,13.665,5.197,15.022,12.366C-1436.98-1237.074-1437.827-1232.985-1439.959-1229.146z"/>
		<path fill="#1F2F68" d="M-1467.171-1238.371c0-6.708,5.435-12.144,12.14-12.144c6.704,0,13.2,5.435,13.2,12.144
			c0,6.702-6.496,12.138-13.2,12.138C-1461.736-1226.234-1467.171-1231.669-1467.171-1238.371z"/>
		<path fill="#FFFFFF" d="M-1462.047-1234.602c0.012,0.022,0.012,0.032,0.021,0.056c0.508,1.196,1.196,2.237,2.067,3.117
			c0.881,0.881,1.92,1.581,3.128,2.101c1.196,0.506,2.483,0.757,3.863,0.757c1.376,0,2.675-0.25,3.873-0.757
			c1.197-0.521,2.237-1.22,3.117-2.101c0.88-0.88,1.569-1.921,2.068-3.117c0.507-1.197,0.753-2.472,0.753-3.826
			c0-1.358-0.246-2.633-0.753-3.819c-0.499-1.198-1.188-2.249-2.068-3.128c-0.879-0.881-1.919-1.581-3.117-2.088
			c-1.198-0.521-2.497-0.768-3.873-0.768c-1.379,0-2.667,0.247-3.863,0.768c-1.208,0.508-2.247,1.208-3.128,2.088
			c-0.871,0.879-1.558,1.93-2.067,3.128c-0.009,0.022-0.009,0.035-0.021,0.057c-0.487,1.173-0.724,2.427-0.724,3.762
			C-1462.771-1237.039-1462.534-1235.788-1462.047-1234.602z M-1459.656-1241.648c0.443-0.937,1.018-1.728,1.717-2.372
			c0.714-0.644,1.5-1.118,2.375-1.446c0.868-0.316,1.736-0.474,2.596-0.474c0.868,0,1.726,0.158,2.597,0.474
			c0.881,0.328,1.658,0.802,2.371,1.446c0.711,0.644,1.273,1.436,1.729,2.372c0.426,0.938,0.654,2.032,0.654,3.276
			c0,1.252-0.228,2.335-0.654,3.272c-0.456,0.938-1.018,1.729-1.729,2.372c-0.713,0.645-1.49,1.118-2.371,1.444
			c-0.872,0.319-1.729,0.476-2.597,0.476c-0.86,0-1.728-0.157-2.596-0.476c-0.874-0.326-1.66-0.799-2.375-1.444
			c-0.7-0.644-1.274-1.435-1.717-2.372c-0.441-0.938-0.664-2.02-0.664-3.272C-1460.32-1239.615-1460.097-1240.71-1459.656-1241.648z
			"/>
		<path fill="#4F9CD5" d="M-1443.911-1242.19c-0.499-1.198-1.188-2.249-2.069-3.128c-0.88-0.881-1.918-1.581-3.115-2.088
			c-1.198-0.521-2.497-0.77-3.873-0.77c-1.379,0-2.667,0.249-3.863,0.77c-1.208,0.508-2.249,1.208-3.126,2.088
			c-0.873,0.879-1.559,1.93-2.068,3.128c-0.012,0.024-0.012,0.032-0.021,0.057c-0.487,1.173-0.725,2.426-0.725,3.762
			c0,0.021,0,0.048,0.003,0.071h19.611c0-0.023,0-0.05,0-0.071C-1443.158-1239.732-1443.403-1241.005-1443.911-1242.19z"/>
	</g>
</g>
<g id="Layer_3_3_">
</g>
<g id="Layer_4">
</g>
<g id="Layer_2_1_">
</g>
</svg>
